<?xml version="1.0" standalone="no"?>
<!DOCTYPE svg PUBLIC "-//W3C//DTD SVG 20010904//EN"
 "http://www.w3.org/TR/2001/REC-SVG-20010904/DTD/svg10.dtd">
<svg version="1.0" xmlns="http://www.w3.org/2000/svg"
 width="360.000000pt" height="360.000000pt" viewBox="0 0 360.000000 360.000000"
 preserveAspectRatio="xMidYMid meet">
<metadata>
Created by potrace 1.14, written by Peter Selinger 2001-2017
</metadata>
<g transform="translate(0.000000,360.000000) scale(0.100000,-0.100000)"
fill="#000000" stroke="none">
<path d="M1332 2908 c-16 -16 -15 -43 2 -57 9 -8 137 -10 456 -9 409 3 444 4
454 21 8 12 8 22 0 35 -10 16 -45 17 -455 20 -338 2 -448 -1 -457 -10z"/>
<path d="M1452 2788 c-9 -9 -12 -108 -12 -386 l0 -374 -287 -536 c-157 -296
-302 -568 -322 -605 -64 -125 -52 -239 36 -337 88 -98 9 -90 933 -90 923 0
845 -7 933 90 73 81 94 176 61 273 -17 50 -60 132 -545 1037 l-89 166 0 375
c0 380 -2 399 -36 399 -7 0 -20 -7 -28 -16 -14 -13 -16 -63 -16 -396 l0 -380
246 -462 c136 -253 264 -492 284 -531 107 -198 120 -229 120 -281 0 -94 -82
-186 -178 -198 -77 -10 -1502 -5 -1538 6 -44 12 -89 50 -120 104 -22 38 -26
54 -22 102 4 59 17 85 328 662 37 69 123 229 191 355 l123 230 0 393 c1 336
-2 394 -14 402 -20 13 -34 12 -48 -2z"/>
<path d="M2888 2295 c-14 -32 -6 -41 77 -87 l60 -34 3 -91 3 -91 -71 -39 c-38
-21 -73 -46 -76 -56 -7 -22 12 -47 36 -47 15 0 347 178 378 202 6 6 12 21 12
34 0 19 -29 38 -192 128 -105 58 -197 106 -205 106 -7 0 -19 -11 -25 -25z
m300 -211 c3 -2 -67 -44 -74 -44 -2 0 -4 20 -4 45 l0 44 38 -21 c20 -12 38
-22 40 -24z"/>
</g>
</svg>
